M48
; DRILL file {KiCad (6.99.0-166-g1fccbdbd53)} date Sun Feb 13 18:33:01 2022
; FORMAT={-:-/ absolute / inch / decimal}
; #@! TF.CreationDate,2022-02-13T18:33:01+08:00
; #@! TF.GenerationSoftware,Kicad,Pcbnew,(6.99.0-166-g1fccbdbd53)
; #@! TF.FileFunction,Plated,1,4,PTH
FMAT,2
INCH
; #@! TA.AperFunction,Plated,PTH,ViaDrill
T1C0.0080
; #@! TA.AperFunction,Plated,PTH,ViaDrill
T2C0.0120
; #@! TA.AperFunction,Plated,PTH,ViaDrill
T3C0.0138
; #@! TA.AperFunction,Plated,PTH,ComponentDrill
T4C0.0197
; #@! TA.AperFunction,Plated,PTH,ComponentDrill
T5C0.0236
; #@! TA.AperFunction,Plated,PTH,ComponentDrill
T6C0.0295
; #@! TA.AperFunction,Plated,PTH,ComponentDrill
T7C0.0315
%
G90
G05
T1
X6.6513Y-4.422
X6.6629Y-3.4606
X7.51Y-4.0317
X7.5907Y-3.9932
X7.9513Y-3.674
T2
X6.7476Y-3.8443
X6.8383Y-3.843
X7.0508Y-3.8314
T3
X5.0693Y-4.279
X5.0713Y-3.3811
X5.0763Y-4.245
X5.0781Y-4.4302
X5.1161Y-3.6428
X5.1413Y-4.3635
X5.1413Y-4.533
X5.1653Y-4.168
X5.1663Y-3.611
X5.2259Y-3.6174
X5.2433Y-4.302
X5.3203Y-4.3142
X5.3283Y-3.831
X5.3673Y-4.465
X5.4233Y-3.948
X5.4359Y-4.0793
X5.4421Y-4.3319
X5.4433Y-4.569
X5.4619Y-4.3145
X5.4663Y-4.429
X5.4693Y-3.323
X5.4693Y-4.48
X5.4753Y-4.292
X5.5086Y-4.5889
X5.5128Y-3.9998
X5.5133Y-4.0992
X5.5147Y-4.299
X5.5159Y-4.4732
X5.5163Y-4.43
X5.5362Y-4.1087
X5.5413Y-3.315
X5.5811Y-3.9144
X5.6273Y-3.402
X5.6273Y-4.389
X5.653Y-3.9448
X5.6603Y-4.503
X5.7183Y-4.195
X5.7293Y-4.317
X5.7383Y-4.465
X5.7433Y-3.681
X5.7453Y-3.494
X5.7473Y-4.366
X5.7493Y-4.334
X5.765Y-3.293
X5.7683Y-4.2901
X5.8011Y-4.1585
X5.8161Y-3.6045
X5.8383Y-4.505
X5.8613Y-3.3801
X5.8663Y-3.711
X5.8883Y-3.374
X5.9088Y-4.1087
X5.9523Y-3.974
X5.9557Y-3.2799
X5.9723Y-4.127
X5.9808Y-3.4616
X6.0317Y-4.4045
X6.0466Y-3.9497
X6.0841Y-3.2881
X6.0853Y-4.3144
X6.1023Y-3.843
X6.1127Y-4.2381
X6.2079Y-3.6052
X6.2113Y-3.711
X6.2183Y-4.2898
X6.2643Y-4.289
X6.2674Y-4.05
X6.3223Y-4.078
X6.3333Y-3.736
X6.3564Y-3.8995
X6.3566Y-3.8582
X6.3641Y-4.2844
X6.3663Y-4.075
X6.4123Y-4.082
X6.4193Y-3.935
X6.4394Y-4.2755
X6.4634Y-3.737
X6.4703Y-4.052
X6.5153Y-4.059
X6.55Y-3.8422
X6.5613Y-3.9461
X6.5772Y-4.2753
X6.6013Y-3.708
X6.6234Y-4.2502
X6.6413Y-4.6055
X6.7181Y-4.4053
X6.7242Y-4.2258
X6.7283Y-4.148
X6.7333Y-4.095
X6.7583Y-4.449
X6.9383Y-3.601
X6.9753Y-4.114
X7.012Y-4.2476
X7.0658Y-4.3618
X7.0783Y-4.4562
X7.0833Y-4.1388
X7.1333Y-4.258
X7.1346Y-3.9127
X7.1893Y-4.415
X7.2433Y-4.218
X7.2523Y-3.32
X7.2551Y-4.4047
X7.2873Y-3.9091
X7.2998Y-4.5325
X7.3573Y-3.519
X7.3813Y-4.389
X7.4042Y-4.5253
X7.4993Y-4.1882
X7.5172Y-3.8567
X7.5843Y-3.652
X7.5963Y-3.379
X7.7653Y-3.521
X7.7913Y-3.823
X7.8692Y-3.939
T4
G00X7.5807Y-4.2362
M15
G01X7.5807Y-4.2677
M16
G05
G00X7.6807Y-4.2362
M15
G01X7.6807Y-4.2677
M16
G05
G00X7.7965Y-4.452
M15
G01X7.765Y-4.452
M16
G05
G00X7.8807Y-4.2362
M15
G01X7.8807Y-4.2677
M16
G05
G00X7.9807Y-4.2362
M15
G01X7.9807Y-4.2677
M16
G05
T5
G00X5.0996Y-3.4469
M15
G01X5.0996Y-3.4193
M16
G05
G00X5.1469Y-3.3386
M15
G01X5.139Y-3.3386
M16
G05
G00X5.3437Y-3.3386
M15
G01X5.3358Y-3.3386
M16
G05
G00X5.3831Y-3.4469
M15
G01X5.3831Y-3.4193
M16
G05
G00X6.1713Y-4.4504
M15
G01X6.1713Y-4.4071
M16
G05
G00X6.1713Y-4.6051
M15
G01X6.1713Y-4.5815
M16
G05
G00X6.5114Y-4.4504
M15
G01X6.5114Y-4.4071
M16
G05
G00X6.5114Y-4.6051
M15
G01X6.5114Y-4.5815
M16
G05
G00X7.4496Y-3.4469
M15
G01X7.4496Y-3.4193
M16
G05
G00X7.4969Y-3.3386
M15
G01X7.489Y-3.3386
M16
G05
G00X7.6937Y-3.3386
M15
G01X7.6858Y-3.3386
M16
G05
G00X7.7331Y-3.4469
M15
G01X7.7331Y-3.4193
M16
G05
T6
G00X8.162Y-3.8736
M15
G01X8.1994Y-3.8736
M16
G05
G00X8.162Y-4.3303
M15
G01X8.1994Y-4.3303
M16
G05
T7
G00X8.1807Y-3.9898
M15
G01X8.1807Y-3.978
M16
G05
G00X8.1807Y-4.1079
M15
G01X8.1807Y-4.0961
M16
G05
G00X8.1807Y-4.226
M15
G01X8.1807Y-4.2142
M16
G05
T0
M30
